<svg width="32" height="32" viewBox="0 0 32 32" fill="none" xmlns="http://www.w3.org/2000/svg">
  <!-- Background -->
  <rect width="32" height="32" rx="8" fill="#E50914"/>

  <!-- Film strip background -->
  <rect x="4" y="8" width="24" height="16" rx="2" fill="white"/>

  <!-- Film strip holes -->
  <circle cx="6" cy="10" r="0.8" fill="#E50914"/>
  <circle cx="6" cy="14" r="0.8" fill="#E50914"/>
  <circle cx="6" cy="18" r="0.8" fill="#E50914"/>
  <circle cx="6" cy="22" r="0.8" fill="#E50914"/>

  <circle cx="26" cy="10" r="0.8" fill="#E50914"/>
  <circle cx="26" cy="14" r="0.8" fill="#E50914"/>
  <circle cx="26" cy="18" r="0.8" fill="#E50914"/>
  <circle cx="26" cy="22" r="0.8" fill="#E50914"/>

  <!-- Play button -->
  <path d="M12 11L20 16L12 21V11Z" fill="#E50914"/>

  <!-- Letter S -->
  <path d="M14 4C14 3.44772 14.4477 3 15 3H17C17.5523 3 18 3.44772 18 4C18 4.55228 17.5523 5 17 5H15C14.4477 5 14 4.55228 14 4Z" fill="white"/>
</svg>
